
# Cube with quads, normals, and UVs
o Cube

# Vertices
v 0.0 0.0 0.0
v 1.0 0.0 0.0
v 1.0 1.0 0.0
v 0.0 1.0 0.0
v 0.0 0.0 1.0
v 1.0 0.0 1.0
v 1.0 1.0 1.0
v 0.0 1.0 1.0

# Texture coordinates
vt 0.0 0.0
vt 1.0 0.0
vt 1.0 1.0
vt 0.0 1.0

# Normals
vn 0.0 0.0 -1.0
vn 0.0 0.0 1.0
vn -1.0 0.0 0.0
vn 1.0 0.0 0.0
vn 0.0 1.0 0.0
vn 0.0 -1.0 0.0

# Faces with vertex/texture/normal
f 1/1/2 2/2/2 3/3/2 4/4/2
f 5/1/1 8/4/1 7/3/1 6/2/1
f 1/1/4 4/4/4 8/3/4 5/2/4
f 2/1/3 6/2/3 7/3/3 3/4/3
f 4/1/6 3/2/6 7/3/6 8/4/6
f 1/1/5 5/2/5 6/3/5 2/4/5
